<?xml version="1.0" encoding="UTF-8" standalone="no"?>
<!DOCTYPE svg PUBLIC "-//W3C//DTD SVG 1.1//EN" "http://www.w3.org/Graphics/SVG/1.1/DTD/svg11.dtd">
<svg width="100%" height="100%" viewBox="0 0 151 140" version="1.1" xmlns="http://www.w3.org/2000/svg" xmlns:xlink="http://www.w3.org/1999/xlink" xml:space="preserve" xmlns:serif="http://www.serif.com/" style="fill-rule:evenodd;clip-rule:evenodd;stroke-linejoin:round;stroke-miterlimit:2;">
    <g transform="matrix(1,0,0,1,-598.6146,-360.185415)">
        <g id="Logo-v1" serif:id="Logo v1">
        </g>
        <g id="Logo-v11" serif:id="Logo v1" transform="matrix(2.147645,0,0,2.147645,-399.87502,-522.53789)">
            <g transform="matrix(1,0,0,1,18.407093,107.573635)">
                <path d="M499.131,313.516C510.992,326.936 516.67,368.547 516.67,368.547C504.978,357.02 481.593,351.294 481.593,351.294C481.593,351.294 458.208,357.07 446.516,368.547C446.516,368.547 452.528,326.825 464.054,313.516C475.747,313.516 481.593,319.579 481.593,319.579C481.593,319.579 487.831,313.516 499.131,313.516Z" style="fill:rgb(195,151,18);"/>
            </g>
            <g transform="matrix(1,0,0,1,18.671024,105.463295)">
                <path d="M497.325,313.516C486.024,313.516 481.329,319.579 481.329,319.579C481.329,319.579 477.025,313.516 465.333,313.516C465.333,313.516 471.18,305.556 481.329,305.556C490.384,305.556 497.325,313.516 497.325,313.516Z" style="fill:rgb(195,151,18);"/>
            </g>
        </g>
        <g id="Palette-de-couleur" serif:id="Palette de couleur">
        </g>
    </g>
</svg>
